HIERARCHY
ROOT Hips
{
	OFFSET 0.000000 0.000000 0.000000
	CHANNELS 6 Xposition Yposition Zposition Zrotation Yrotation Xrotation 
	JOINT LeftUpLeg_virtual
	{
		OFFSET 0.000000 0.000000 0.000000
		CHANNELS 3 Zrotation Yrotation Xrotation
		JOINT LeftUpLeg
		{
			OFFSET 10.205400 -3.823500 0.155100
			CHANNELS 3 Zrotation Yrotation Xrotation
			JOINT LeftLeg
			{
				OFFSET 0.708757 -12.982077 0.567790
				CHANNELS 3 Zrotation Yrotation Xrotation
				JOINT LeftFoot
				{
					OFFSET -0.708756 -10.717838 -2.184338
					CHANNELS 3 Zrotation Yrotation Xrotation
					JOINT LeftToeBase
					{
						OFFSET 0.108149 -7.191104 7.560241
						CHANNELS 3 Zrotation Yrotation Xrotation
						End Site
						{
							OFFSET 0.000000 0.000000 0.000000
						}
					}
				}
			}
		}
	}
	JOINT RightUpLeg_virtual
	{
		OFFSET 0.000000 0.000000 0.000000
		CHANNELS 3 Zrotation Yrotation Xrotation
		JOINT RightUpLeg
		{
			OFFSET -10.205400 -3.823500 0.005500
			CHANNELS 3 Zrotation Yrotation Xrotation
			JOINT RightLeg
			{
				OFFSET -0.708756 -12.982134 0.610632
				CHANNELS 3 Zrotation Yrotation Xrotation
				JOINT RightFoot
				{
					OFFSET 0.708754 -10.717769 -1.945823
					CHANNELS 3 Zrotation Yrotation Xrotation
					JOINT RightToeBase
					{
						OFFSET -0.108140 -7.191069 7.372968
						CHANNELS 3 Zrotation Yrotation Xrotation
						End Site
						{
							OFFSET 0.000000 0.000000 0.000000
						}
					}
				}
			}
		}
	}
	JOINT Spine_virtual
	{
		OFFSET 0.000000 0.000000 0.000000
		CHANNELS 3 Zrotation Yrotation Xrotation
		JOINT Spine
		{
			OFFSET 0.000000 6.876099 0.125700
			CHANNELS 3 Zrotation Yrotation Xrotation
			JOINT Spine1
			{
				OFFSET 0.000000 8.022060 0.146608
				CHANNELS 3 Zrotation Yrotation Xrotation
				JOINT Spine2
				{
					OFFSET 0.000000 9.168068 0.167552
					CHANNELS 3 Zrotation Yrotation Xrotation
					JOINT Neck_virtual
					{
						OFFSET 0.000000 0.000000 0.000000
						CHANNELS 3 Zrotation Yrotation Xrotation
						JOINT Neck
						{
							OFFSET 0.000000 10.314075 0.188496
							CHANNELS 3 Zrotation Yrotation Xrotation
							JOINT Head
							{
								OFFSET 0.000000 7.643700 -2.377400
								CHANNELS 3 Zrotation Yrotation Xrotation
								End Site
								{
									OFFSET 0.000000 0.000000 0.000000
								}
							}
						}
					}
					JOINT LeftShoulder_virtual
					{
						OFFSET 0.000000 0.000000 0.000000
						CHANNELS 3 Zrotation Yrotation Xrotation
						JOINT LeftShoulder
						{
							OFFSET 4.392200 8.824978 0.174984
							CHANNELS 3 Zrotation Yrotation Xrotation
							JOINT LeftArm
							{
								OFFSET 8.771219 -2.981674 -0.026999
								CHANNELS 3 Zrotation Yrotation Xrotation
								JOINT LeftForeArm
								{
									OFFSET 8.512804 0.000000 -0.000000
									CHANNELS 3 Zrotation Yrotation Xrotation
									JOINT LeftHand
									{
										OFFSET 18.484802 0.000000 -0.000000
										CHANNELS 3 Zrotation Yrotation Xrotation
										End Site
										{
											OFFSET 0.000000 0.000000 0.000000
										}
									}
								}
							}
						}
					}
					JOINT RightShoulder_virtual
					{
						OFFSET 0.000000 0.000000 0.000000
						CHANNELS 3 Zrotation Yrotation Xrotation
						JOINT RightShoulder
						{
							OFFSET -4.392200 8.824993 0.141379
							CHANNELS 3 Zrotation Yrotation Xrotation
							JOINT RightArm
							{
								OFFSET -8.771282 -2.981682 -0.094208
								CHANNELS 3 Zrotation Yrotation Xrotation
								JOINT RightForeArm
								{
									OFFSET -8.494598 0.000000 0.000000
									CHANNELS 3 Zrotation Yrotation Xrotation
									JOINT RightHand
									{
										OFFSET -18.483803 0.000000 0.000001
										CHANNELS 3 Zrotation Yrotation Xrotation
										End Site
										{
											OFFSET 0.000000 0.000000 0.000000
										}
									}
								}
							}
						}
					}
				}
			}
		}
	}
}
MOTION
Frames: 7
Frame Time: 0.033333
0.026422 36.399651 -11.424551 179.929927 2.116318 -179.910953 -2.207967 -3.621903 9.193264 -9.423489 -0.933598 -16.926530 13.726354 4.149155 14.929547 -3.086535 -1.443259 13.707824 0.000000 0.000000 0.000000 2.869941 -1.590083 7.849751 -2.481573 3.400452 -12.413473 -7.570022 0.821797 18.523075 9.121780 2.808663 7.192071 0.000000 0.000000 0.000000 1.313294 0.262611 -3.336651 -5.964077 3.566592 -5.855580 -0.802503 -3.959796 3.235337 -0.040817 -0.003585 0.044367 -1.236257 -2.159095 5.192869 0.274774 -2.000321 1.192072 0.000000 0.000000 0.000000 0.353888 -1.399706 2.618906 10.992368 5.115883 -3.605291 -1.022456 20.305090 -36.622235 -2.821569 -46.810777 -6.040368 0.000000 0.000000 0.000000 -3.291564 -0.696924 2.082439 5.704925 -10.592607 -8.781072 15.504307 -25.329927 -35.155277 -3.648012 39.939552 -4.282863 0.000000 0.000000 0.000000 
0.021494 36.397945 -11.446663 179.940063 2.039808 -179.792518 -2.267747 -3.552118 9.041762 -9.250910 -1.136935 -17.026958 13.789816 3.770782 14.902069 -3.225757 -1.589223 14.548337 0.000000 0.000000 0.000000 2.896880 -1.551506 7.995011 -2.310029 2.967944 -12.246984 -7.523787 0.259119 18.889230 8.733559 2.558811 7.487764 0.000000 0.000000 0.000000 1.305027 0.200699 -3.390557 -5.966649 3.673738 -5.907393 -0.779744 -4.047397 3.196075 0.012673 -0.097428 0.038048 -1.336849 -2.145946 5.189264 0.307280 -2.003738 1.211204 0.000000 0.000000 0.000000 0.295826 -1.341506 2.621206 10.983395 5.080749 -3.642583 -1.000414 20.379309 -36.591509 -2.948658 -46.796286 -5.856177 0.000000 0.000000 0.000000 -3.358529 -0.626538 2.127126 5.727240 -10.574985 -8.910596 15.486074 -25.340844 -35.151285 -3.507388 39.991926 -4.178907 0.000000 0.000000 0.000000 
0.017447 36.395451 -11.473888 179.880818 2.129277 -179.766030 -2.351108 -3.329422 8.932321 -9.231241 -1.029319 -17.077220 13.735071 3.531329 15.169918 -3.199970 -1.559757 14.406588 0.000000 0.000000 0.000000 2.827807 -1.448415 8.002256 -2.321863 2.936450 -12.265548 -7.501086 0.267457 18.948159 8.762340 2.519821 7.481453 0.000000 0.000000 0.000000 1.282328 0.264288 -3.410925 -5.952815 3.604715 -5.897170 -0.787114 -3.938121 3.211773 -0.006586 -0.009572 0.031213 -1.282809 -2.164754 5.173890 0.326788 -2.044137 1.225560 0.000000 0.000000 0.000000 0.333991 -1.337265 2.655223 10.891205 4.898323 -3.724007 -1.050615 20.430359 -36.561671 -2.882615 -46.752747 -5.833796 0.000000 0.000000 0.000000 -3.315520 -0.644370 2.119718 5.742943 -10.615348 -8.888964 15.524047 -25.548205 -35.201876 -3.489345 40.023167 -4.143331 0.000000 0.000000 0.000000 
0.015090 36.391724 -11.498157 179.973859 1.947123 -179.845288 -2.255848 -3.482553 9.091766 -9.204741 -1.126575 -17.157032 13.825034 3.755596 15.391194 -3.226078 -1.668806 14.300581 0.000000 0.000000 0.000000 2.892920 -1.567758 8.082781 -2.298463 2.892834 -12.202352 -7.537956 0.188049 18.992808 8.798102 2.547383 7.473849 0.000000 0.000000 0.000000 1.325202 0.240962 -3.344076 -5.892101 3.599393 -5.902218 -0.753903 -3.939947 3.198073 0.017684 -0.041833 0.042989 -1.328093 -2.108130 5.168652 0.262634 -2.182714 1.332309 0.000000 0.000000 0.000000 0.299494 -1.327917 2.642886 10.787746 4.559080 -3.719795 -1.076052 20.652161 -36.558294 -2.981151 -46.723722 -5.607102 0.000000 0.000000 0.000000 -3.356384 -0.613902 2.093158 5.777476 -10.656386 -8.857400 15.510794 -25.753597 -35.251330 -3.468519 40.147804 -4.106315 0.000000 0.000000 0.000000 
0.011857 36.388786 -11.519786 179.957712 1.948500 -179.756359 -2.304113 -3.459117 9.030524 -9.170451 -0.991978 -17.232941 13.766723 3.734423 15.486008 -3.248492 -1.715388 14.143630 0.000000 0.000000 0.000000 2.877071 -1.503794 8.040771 -2.281284 2.822175 -12.230325 -7.547818 0.203065 19.028632 8.831137 2.516984 7.462263 0.000000 0.000000 0.000000 1.317619 0.209807 -3.432196 -5.823315 3.582473 -5.950896 -0.728305 -3.905918 3.184494 0.020153 -0.041561 -0.013263 -1.296818 -1.996670 5.182502 0.273039 -2.251577 1.355975 0.000000 0.000000 0.000000 0.291261 -1.249325 2.698438 10.621369 4.210949 -3.727787 -1.108398 20.927341 -36.428452 -2.784850 -46.688523 -5.594621 0.000000 0.000000 0.000000 -3.342362 -0.546516 2.195763 5.861252 -10.600761 -8.889940 15.576863 -26.027066 -35.491432 -3.495701 40.216625 -4.108166 0.000000 0.000000 0.000000 
0.004655 36.385406 -11.531066 179.906158 2.065176 -179.755307 -2.391923 -3.351835 9.003030 -9.187223 -0.838623 -17.234415 13.612809 3.518620 15.507393 -3.171232 -1.646081 14.080247 0.000000 0.000000 0.000000 2.785388 -1.405373 8.021085 -2.303763 2.818768 -12.221380 -7.464943 0.235166 19.095104 8.852294 2.432801 7.467278 0.000000 0.000000 0.000000 1.246584 0.392422 -3.466035 -5.767235 3.527870 -5.990962 -0.730630 -3.891911 3.161458 -0.020639 -0.084818 0.008812 -1.235225 -1.981698 5.153290 0.198607 -2.407886 1.518046 0.000000 0.000000 0.000000 0.357810 -1.173040 2.671376 10.488776 3.747108 -3.875943 -1.143643 21.282253 -36.161371 -2.715948 -46.699707 -5.432643 0.000000 0.000000 0.000000 -3.263078 -0.469001 2.174806 5.894191 -10.501984 -8.772423 15.683532 -26.435025 -35.890496 -3.498607 40.422446 -4.058431 0.000000 0.000000 0.000000 
-0.002530 36.383801 -11.536694 179.875778 2.188550 -179.760839 -2.445167 -3.232456 8.986444 -9.136708 -0.751136 -17.216638 13.563984 3.509650 15.595810 -3.121380 -1.673681 13.983545 0.000000 0.000000 0.000000 2.753386 -1.331824 8.006283 -2.305969 2.769777 -12.225925 -7.458752 0.279947 19.139548 8.942575 2.406445 7.473134 0.000000 0.000000 0.000000 1.210722 0.322998 -3.483063 -5.641104 3.573521 -6.011839 -0.669031 -3.771428 3.149906 -0.005703 -0.014533 0.024942 -1.178782 -1.929577 5.138053 0.104498 -2.580727 1.735544 0.000000 0.000000 0.000000 0.394994 -1.110217 2.660525 10.343384 3.196025 -3.910012 -1.368045 21.796269 -36.169779 -2.684968 -46.843715 -5.197260 0.000000 0.000000 0.000000 -3.203837 -0.430883 2.166792 5.901998 -10.359806 -8.717114 15.941935 -26.842558 -36.484955 -3.522223 40.673223 -4.071446 0.000000 0.000000 0.000000 
